<svg width="24" height="24" viewBox="0 0 24 24" fill="none" xmlns="http://www.w3.org/2000/svg">
<g clip-path="url(#clip0_1010_77899)">
<path d="M1.96104 1.96012C1.34755 2.57361 1.34755 3.5775 1.96104 4.19099L19.808 22.038C20.4215 22.6515 21.4254 22.6515 22.0389 22.038C22.6524 21.4245 22.6524 20.4206 22.0389 19.8071L4.19192 1.96012C3.57843 1.34663 2.57453 1.34663 1.96104 1.96012Z" fill="#111111"/>
<path d="M22.038 4.19288L4.19099 22.0399C3.5775 22.6534 2.57361 22.6534 1.96012 22.0399C1.34663 21.4264 1.34663 20.4225 1.96012 19.809L19.8071 1.96201C20.4206 1.34852 21.4245 1.34852 22.038 1.96201C22.6515 2.5755 22.6515 3.57939 22.038 4.19288Z" fill="#111111"/>
</g>
<defs>
<clipPath id="clip0_1010_77899">
<rect width="24" height="24" fill="white"/>
</clipPath>
</defs>
</svg>
