<svg width="20" height="20" viewBox="0 0 20 20" fill="none" xmlns="http://www.w3.org/2000/svg">
<g clip-path="url(#clip0_1_133)">
<path d="M18.1443 0H1.85568C0.830817 0 0 0.830817 0 1.85568V18.1443C0 19.1692 0.830817 20 1.85568 20H18.1443C19.1692 20 20 19.1692 20 18.1443V1.85568C20 0.830817 19.1692 0 18.1443 0Z" fill="#0B63BD"/>
<path d="M7.20456 5.45455C7.20456 5.79167 7.10459 6.12123 6.9173 6.40154C6.73 6.68185 6.46378 6.90033 6.15232 7.02934C5.84085 7.15835 5.49813 7.19211 5.16748 7.12634C4.83683 7.06057 4.53311 6.89823 4.29472 6.65984C4.05634 6.42146 3.89399 6.11774 3.82822 5.78709C3.76245 5.45644 3.79621 5.11371 3.92522 4.80224C4.05424 4.49078 4.27271 4.22457 4.55302 4.03727C4.83333 3.84997 5.16289 3.75 5.50002 3.75C5.95209 3.75 6.38565 3.92959 6.70531 4.24925C7.02498 4.56891 7.20456 5.00247 7.20456 5.45455Z" fill="white"/>
<path d="M6.81822 8.29547V15.8262C6.81852 15.8817 6.80783 15.9368 6.78678 15.9882C6.76573 16.0396 6.73472 16.0863 6.69554 16.1257C6.65637 16.1651 6.60979 16.1964 6.55849 16.2177C6.50719 16.239 6.45218 16.25 6.39663 16.25H4.60004C4.54448 16.2502 4.48944 16.2393 4.43809 16.2181C4.38673 16.1969 4.34007 16.1658 4.30079 16.1265C4.2615 16.0873 4.23037 16.0406 4.20918 15.9892C4.18799 15.9379 4.17716 15.8828 4.17731 15.8273V8.29547C4.17731 8.18335 4.22185 8.07583 4.30112 7.99656C4.3804 7.91728 4.48792 7.87274 4.60004 7.87274H6.39663C6.50854 7.87304 6.61578 7.91771 6.69481 7.99696C6.77384 8.0762 6.81822 8.18355 6.81822 8.29547Z" fill="white"/>
<path d="M16.2091 12.2159V15.8614C16.2093 15.9125 16.1993 15.9631 16.1799 16.0103C16.1604 16.0575 16.1318 16.1004 16.0956 16.1365C16.0595 16.1726 16.0166 16.2013 15.9694 16.2207C15.9222 16.2402 15.8716 16.2502 15.8205 16.25H13.8887C13.8376 16.2502 13.787 16.2402 13.7398 16.2207C13.6926 16.2013 13.6497 16.1726 13.6135 16.1365C13.5774 16.1004 13.5488 16.0575 13.5293 16.0103C13.5098 15.9631 13.4999 15.9125 13.5 15.8614V12.3284C13.5 11.8012 13.6546 10.0193 12.1216 10.0193C10.9341 10.0193 10.6921 11.2387 10.6444 11.7864V15.8614C10.6444 15.9635 10.6042 16.0615 10.5325 16.1342C10.4609 16.2069 10.3635 16.2485 10.2614 16.25H8.3955C8.34451 16.25 8.29403 16.24 8.24694 16.2204C8.19986 16.2009 8.15709 16.1722 8.12109 16.1361C8.08509 16.1 8.05657 16.0572 8.03717 16.01C8.01776 15.9629 8.00785 15.9124 8.008 15.8614V8.26251C8.00785 8.21153 8.01776 8.16102 8.03717 8.11388C8.05657 8.06673 8.08509 8.02388 8.12109 7.98778C8.15709 7.95167 8.19986 7.92303 8.24694 7.90348C8.29403 7.88394 8.34451 7.87388 8.3955 7.87388H10.2614C10.3645 7.87388 10.4633 7.91482 10.5362 7.98771C10.6091 8.06059 10.65 8.15944 10.65 8.26251V8.91933C11.091 8.25797 11.7444 7.74774 13.1387 7.74774C16.2273 7.74774 16.2091 10.6318 16.2091 12.2159Z" fill="white"/>
</g>
<defs>
<clipPath id="clip0_1_133">
<rect width="20" height="20" fill="white"/>
</clipPath>
</defs>
</svg>
