<svg width="25" height="24" viewBox="0 0 25 24" fill="none" xmlns="http://www.w3.org/2000/svg">
<g clip-path="url(#clip0_1_148)">
<path d="M23.7758 6.23882C23.4992 5.21069 22.6886 4.40027 21.6606 4.12341C19.7825 3.60944 12.2701 3.60944 12.2701 3.60944C12.2701 3.60944 4.75785 3.60944 2.87975 4.10382C1.87158 4.38049 1.0412 5.21087 0.764524 6.23882C0.270325 8.11674 0.270325 12.0114 0.270325 12.0114C0.270325 12.0114 0.270325 15.9256 0.764524 17.7839C1.04138 18.8119 1.8518 19.6225 2.87993 19.8993C4.77763 20.4133 12.2703 20.4133 12.2703 20.4133C12.2703 20.4133 19.7825 20.4133 21.6606 19.9189C22.6887 19.6423 23.4992 18.8317 23.776 17.8037C24.2702 15.9256 24.2702 12.0312 24.2702 12.0312C24.2702 12.0312 24.29 8.11674 23.7758 6.23882Z" fill="#FF0000"/>
<path d="M9.87817 15.6093L16.1252 12.0113L9.87817 8.41333V15.6093Z" fill="white"/>
</g>
<defs>
<clipPath id="clip0_1_148">
<rect width="24" height="24" fill="white" transform="translate(0.270325)"/>
</clipPath>
</defs>
</svg>
